<svg width="32" height="32" viewBox="0 0 32 32" fill="none" xmlns="http://www.w3.org/2000/svg">
<g id="Frame">
<path id="Vector" d="M29.3337 11.9998V22.6665C29.3337 24.1393 28.1398 25.3332 26.667 25.3332H5.33366C3.8609 25.3332 2.66699 24.1393 2.66699 22.6665V9.33317C2.66699 7.86041 3.8609 6.6665 5.33366 6.6665H26.667C28.1398 6.6665 29.3337 7.86041 29.3337 9.33317V11.9998ZM29.3337 11.9998H8.00033" stroke="#0D0D0D" stroke-width="1.5" stroke-linecap="round" stroke-linejoin="round"/>
<path id="Vector_2" d="M22 17.8427C22.3539 17.526 22.8211 17.3335 23.3333 17.3335C24.4379 17.3335 25.3333 18.229 25.3333 19.3335C25.3333 20.438 24.4379 21.3335 23.3333 21.3335C22.8211 21.3335 22.3539 21.141 22 20.8243" stroke="#0D0D0D" stroke-width="1.5" stroke-linecap="round" stroke-linejoin="round"/>
<path id="Vector_3" d="M22.0003 17.8427C21.6465 17.526 21.1793 17.3335 20.667 17.3335C19.5625 17.3335 18.667 18.229 18.667 19.3335C18.667 20.438 19.5625 21.3335 20.667 21.3335C21.1793 21.3335 21.6465 21.141 22.0003 20.8243" stroke="#0D0D0D" stroke-width="1.5" stroke-linecap="round" stroke-linejoin="round"/>
</g>
</svg>
