<svg width="46" height="29" viewBox="0 0 46 29" fill="none" xmlns="http://www.w3.org/2000/svg">
<g id="mir 1" clip-path="url(#clip0_512_627)">
<path id="Vector" d="M0 0H46V29H0V0Z" fill="white"/>
<g id="Group">
<path id="Vector_2" d="M32.088 13.949V20.213H35.6264V16.501H39.6367C41.3233 16.4894 42.7564 15.428 43.299 13.949H32.088Z" fill="#3DBB34"/>
<path id="Vector_3" d="M31.6161 8.78699C31.8226 11.3448 34.2877 13.369 37.2954 13.369H43.4464C43.4936 13.137 43.5172 12.8934 43.5172 12.644C43.5172 10.5212 41.7774 8.80439 39.6249 8.78699H31.6161Z" fill="url(#paint0_linear_512_627)"/>
<g id="Group_2">
<path id="Vector_4" d="M26.3792 13.3052C26.4205 13.2356 26.4854 13.195 26.5679 13.195C26.6859 13.195 26.7743 13.2878 26.7802 13.398V20.155H30.3187V8.78699H26.7802C26.332 8.80439 25.8248 9.12339 25.6361 9.52359L22.823 15.4628C22.8171 15.486 22.8054 15.5092 22.7936 15.5324C22.7523 15.5904 22.6815 15.631 22.5989 15.631C22.4692 15.631 22.363 15.5266 22.363 15.399V8.78699H18.8246V20.155H22.363C22.8054 20.1318 23.3007 19.8128 23.4895 19.4184L26.3792 13.3226C26.3733 13.3168 26.3792 13.311 26.3792 13.3052Z" fill="#3DBB34"/>
<path id="Vector_5" d="M13.169 13.5024L11.099 20.155H8.55127L6.48717 13.4966C6.46948 13.3922 6.37512 13.311 6.25717 13.311C6.12743 13.311 6.02717 13.4154 6.02717 13.5372V20.1492H2.48871V8.7812H5.52589H6.4282C7.07691 8.7812 7.76102 9.28 7.94973 9.889L9.67179 15.428C9.76025 15.7064 9.89589 15.7006 9.98435 15.428L11.7064 9.889C11.8951 9.2742 12.5792 8.7812 13.2279 8.7812H14.1302H17.1674V20.1492H13.629V13.5372C13.629 13.5372 13.629 13.5372 13.629 13.5314C13.629 13.4038 13.5228 13.3052 13.399 13.3052C13.281 13.311 13.1867 13.3922 13.169 13.5024Z" fill="#3DBB34"/>
</g>
</g>
</g>
<defs>
<linearGradient id="paint0_linear_512_627" x1="31.6176" y1="11.078" x2="43.5165" y2="11.078" gradientUnits="userSpaceOnUse">
<stop stop-color="#00A0E5"/>
<stop offset="1" stop-color="#0077C3"/>
</linearGradient>
<clipPath id="clip0_512_627">
<rect width="46" height="29" fill="white"/>
</clipPath>
</defs>
</svg>
